<?xml version="1.0" encoding="UTF-8"?>
<!DOCTYPE svg PUBLIC "-//W3C//DTD SVG 1.1//EN" "http://www.w3.org/Graphics/SVG/1.1/DTD/svg11.dtd">
<!-- Creator: CorelDRAW 2020 (64 Bit) -->
<svg xmlns="http://www.w3.org/2000/svg" xml:space="preserve" width="145px" height="180px" version="1.1" style="shape-rendering:geometricPrecision; text-rendering:geometricPrecision; image-rendering:optimizeQuality; fill-rule:evenodd; clip-rule:evenodd"
viewBox="0 0 145 180"
 xmlns:xlink="http://www.w3.org/1999/xlink"
 xmlns:xodm="http://www.corel.com/coreldraw/odm/2003">
 <defs>
  <style type="text/css">
   <![CDATA[
    .str0 {stroke:#373435;stroke-width:3.72;stroke-miterlimit:22.9256}
    .fil0 {fill:#FEFEFE}
    .fil1 {fill:#373435;fill-rule:nonzero}
   ]]>
  </style>
 </defs>
 <g id="Camada_x0020_1">
  <metadata id="CorelCorpID_0Corel-Layer"/>
  <g id="_2471703716064">
   <path class="fil0 str0" d="M25.08 6l101.27 0c6.65,0 12.08,5.43 12.08,12.08l0 143.08c0,6.65 -5.43,12.08 -12.08,12.08l-101.27 0c-6.64,0 -12.08,-5.43 -12.08,-12.08l0 -143.08c0,-6.65 5.44,-12.08 12.08,-12.08zm12.54 28.8l76.19 0 0 35.31 -76.19 0 0 -35.31z"/>
   <g>
    <g>
     <path class="fil1" d="M17.97 32.94l-8.37 0 0 -7.43 8.37 0 0 0 0 7.43zm8.36 0.93l-7.43 0 0 0 0 -0.05 -0.01 -0.04 0 -0.05 -0.01 -0.05 -0.01 -0.03 -0.01 -0.04 -0.02 -0.05 -0.02 -0.05 -0.01 -0.03 -0.02 -0.04 -0.02 -0.04 -0.03 -0.03 -0.03 -0.05 -0.02 -0.03 -0.04 -0.04 -0.03 -0.03 -0.03 -0.03 -0.04 -0.04 -0.03 -0.02 -0.05 -0.03 -0.03 -0.03 -0.04 -0.02 -0.04 -0.02 -0.03 -0.01 -0.05 -0.02 -0.05 -0.02 -0.04 -0.01 -0.03 -0.01 -0.05 -0.01 -0.05 0 -0.04 -0.01 -0.05 0 0 -7.43 0.42 0.01 0.44 0.03 0.41 0.06 0.4 0.07 0.42 0.1 0.4 0.11 0.38 0.13 0.38 0.15 0.37 0.17 0.37 0.19 0.35 0.2 0.34 0.22 0.32 0.23 0.32 0.25 0.29 0.26 0.3 0.27 0.27 0.3 0.26 0.29 0.25 0.32 0.23 0.32 0.22 0.34 0.2 0.35 0.19 0.37 0.17 0.37 0.15 0.38 0.13 0.38 0.11 0.4 0.1 0.42 0.07 0.4 0.06 0.41 0.03 0.44 0.01 0.42 0 0zm-7.43 0l0 0 7.43 0 0 0 0 0 -7.43 0zm-0.93 8.36l0 -7.43 0 0 0.05 0 0.04 0 0.05 -0.01 0.05 -0.01 0.03 0 0.04 -0.02 0.05 -0.01 0.05 -0.02 0.03 -0.02 0.04 -0.02 0.04 -0.02 0.03 -0.02 0.05 -0.03 0.03 -0.03 0.04 -0.03 0.03 -0.03 0.03 -0.03 0.04 -0.05 0.02 -0.03 0.03 -0.04 0.03 -0.04 0.02 -0.03 0.02 -0.04 0.01 -0.04 0.02 -0.04 0.02 -0.05 0.01 -0.04 0.01 -0.04 0.01 -0.05 0 -0.05 0.01 -0.03 0 -0.06 7.43 0 -0.01 0.43 -0.03 0.43 -0.06 0.42 -0.07 0.4 -0.1 0.41 -0.11 0.41 -0.13 0.38 -0.15 0.37 -0.17 0.38 -0.19 0.36 -0.2 0.35 -0.22 0.34 -0.23 0.33 -0.25 0.31 -0.26 0.3 -0.27 0.29 -0.3 0.28 -0.29 0.26 -0.32 0.25 -0.32 0.23 -0.34 0.21 -0.35 0.21 -0.37 0.18 -0.37 0.18 -0.38 0.14 -0.38 0.13 -0.4 0.12 -0.42 0.09 -0.4 0.08 -0.41 0.05 -0.44 0.03 -0.42 0.01 0 0zm-8.37 -7.43l8.37 0 0 7.43 -8.37 0 0 0 0 -7.43zm-8.36 -0.93l7.44 0 0 0 0 0.06 0 0.03 0.01 0.05 0 0.05 0.01 0.04 0.01 0.04 0.02 0.05 0.02 0.04 0.02 0.04 0.01 0.04 0.02 0.03 0.03 0.04 0.03 0.04 0.03 0.03 0.03 0.05 0.03 0.03 0.03 0.03 0.04 0.03 0.04 0.03 0.04 0.03 0.04 0.02 0.03 0.02 0.04 0.02 0.04 0.02 0.04 0.02 0.05 0.01 0.04 0.02 0.03 0 0.06 0.01 0.05 0.01 0.03 0 0.05 0 0 7.43 -0.42 -0.01 -0.43 -0.03 -0.42 -0.05 -0.4 -0.08 -0.42 -0.09 -0.4 -0.12 -0.38 -0.13 -0.37 -0.14 -0.38 -0.18 -0.36 -0.18 -0.36 -0.21 -0.33 -0.21 -0.33 -0.23 -0.31 -0.25 -0.3 -0.26 -0.29 -0.28 -0.28 -0.29 -0.26 -0.3 -0.25 -0.31 -0.23 -0.33 -0.22 -0.34 -0.2 -0.35 -0.19 -0.36 -0.17 -0.38 -0.14 -0.37 -0.13 -0.38 -0.12 -0.41 -0.1 -0.41 -0.07 -0.4 -0.05 -0.42 -0.04 -0.43 -0.01 -0.43 0 0zm7.44 0l0 0 -7.44 0 0 0 0 0 7.44 0zm0.92 -8.36l0 7.43 0 0 -0.05 0 -0.03 0.01 -0.05 0 -0.06 0.01 -0.03 0.01 -0.04 0.01 -0.05 0.02 -0.04 0.02 -0.04 0.01 -0.04 0.02 -0.03 0.02 -0.04 0.03 -0.04 0.03 -0.04 0.02 -0.04 0.04 -0.03 0.03 -0.03 0.03 -0.03 0.04 -0.03 0.03 -0.03 0.05 -0.03 0.03 -0.02 0.04 -0.01 0.04 -0.02 0.03 -0.02 0.05 -0.02 0.05 -0.01 0.04 -0.01 0.03 0 0.05 -0.01 0.05 0 0.04 0 0.05 -7.44 0 0.01 -0.42 0.04 -0.44 0.05 -0.41 0.07 -0.4 0.1 -0.42 0.12 -0.4 0.13 -0.38 0.14 -0.38 0.17 -0.37 0.19 -0.37 0.2 -0.35 0.22 -0.34 0.23 -0.32 0.25 -0.32 0.26 -0.29 0.28 -0.3 0.29 -0.27 0.3 -0.26 0.31 -0.25 0.33 -0.23 0.33 -0.22 0.36 -0.2 0.36 -0.19 0.38 -0.17 0.37 -0.15 0.38 -0.13 0.4 -0.11 0.42 -0.1 0.4 -0.07 0.42 -0.06 0.43 -0.03 0.42 -0.01 0 0z"/>
     <path id="1" class="fil0" d="M9.6 29.23l8.37 0c2.55,0 4.64,2.09 4.64,4.64l0 0c0,2.56 -2.09,4.65 -4.64,4.65l-8.37 0c-2.55,0 -4.64,-2.09 -4.64,-4.65l0 0c0,-2.55 2.09,-4.64 4.64,-4.64z"/>
    </g>
    <g>
     <path class="fil1" d="M17.97 51.52l-8.37 0 0 -7.43 8.37 0 0 0 0 7.43zm8.36 0.93l-7.43 0 0 0 0 -0.05 -0.01 -0.04 0 -0.04 -0.01 -0.06 -0.01 -0.03 -0.01 -0.04 -0.02 -0.05 -0.02 -0.04 -0.01 -0.04 -0.02 -0.04 -0.02 -0.03 -0.03 -0.04 -0.03 -0.04 -0.02 -0.04 -0.04 -0.04 -0.03 -0.03 -0.03 -0.03 -0.04 -0.04 -0.03 -0.02 -0.05 -0.03 -0.03 -0.03 -0.04 -0.02 -0.04 -0.02 -0.03 -0.01 -0.05 -0.02 -0.05 -0.02 -0.04 -0.01 -0.03 -0.01 -0.05 0 -0.05 -0.01 -0.04 0 -0.05 -0.01 0 -7.43 0.42 0.01 0.44 0.04 0.41 0.05 0.4 0.07 0.42 0.1 0.4 0.11 0.38 0.13 0.38 0.15 0.37 0.17 0.37 0.19 0.35 0.2 0.34 0.22 0.32 0.23 0.32 0.25 0.29 0.26 0.3 0.28 0.27 0.29 0.26 0.29 0.25 0.32 0.23 0.33 0.22 0.33 0.2 0.36 0.19 0.36 0.17 0.38 0.15 0.37 0.13 0.38 0.11 0.4 0.1 0.42 0.07 0.4 0.06 0.42 0.03 0.43 0.01 0.42 0 0zm-7.43 0.01l0 -0.01 7.43 0 0 0.01 0 0 -7.43 0zm-0.93 8.36l0 -7.44 0 0 0.05 0 0.04 0 0.05 -0.01 0.05 0 0.03 -0.01 0.04 -0.01 0.05 -0.02 0.05 -0.02 0.03 -0.01 0.04 -0.02 0.04 -0.02 0.03 -0.03 0.05 -0.03 0.03 -0.03 0.04 -0.03 0.03 -0.03 0.03 -0.03 0.04 -0.04 0.02 -0.04 0.03 -0.04 0.03 -0.04 0.02 -0.03 0.02 -0.04 0.01 -0.04 0.02 -0.04 0.02 -0.05 0.01 -0.04 0.01 -0.03 0.01 -0.06 0 -0.04 0.01 -0.04 0 -0.05 7.43 0 -0.01 0.42 -0.03 0.43 -0.06 0.42 -0.07 0.4 -0.1 0.42 -0.11 0.4 -0.13 0.38 -0.15 0.37 -0.17 0.38 -0.19 0.36 -0.2 0.36 -0.22 0.33 -0.23 0.33 -0.25 0.32 -0.26 0.29 -0.27 0.29 -0.3 0.28 -0.29 0.26 -0.32 0.25 -0.32 0.23 -0.34 0.22 -0.35 0.2 -0.37 0.19 -0.37 0.17 -0.38 0.15 -0.38 0.12 -0.4 0.12 -0.42 0.1 -0.4 0.07 -0.41 0.05 -0.44 0.04 -0.42 0.01 0 0zm-8.37 -7.44l8.37 0 0 7.44 -8.37 0 0 0 0 -7.44zm-8.36 -0.92l7.44 0 0 0 0 0.05 0 0.04 0.01 0.04 0 0.06 0.01 0.03 0.01 0.04 0.02 0.05 0.02 0.04 0.02 0.04 0.01 0.04 0.02 0.03 0.03 0.04 0.03 0.04 0.03 0.04 0.03 0.04 0.03 0.03 0.03 0.03 0.04 0.03 0.04 0.03 0.04 0.03 0.04 0.03 0.03 0.02 0.04 0.02 0.04 0.01 0.04 0.02 0.05 0.02 0.04 0.01 0.03 0.01 0.06 0 0.05 0.01 0.03 0 0.05 0 0 7.44 -0.42 -0.01 -0.43 -0.04 -0.42 -0.05 -0.4 -0.07 -0.42 -0.1 -0.4 -0.12 -0.38 -0.12 -0.37 -0.15 -0.38 -0.17 -0.36 -0.19 -0.36 -0.2 -0.33 -0.22 -0.33 -0.23 -0.31 -0.25 -0.3 -0.26 -0.29 -0.28 -0.28 -0.29 -0.26 -0.29 -0.25 -0.32 -0.23 -0.33 -0.22 -0.33 -0.2 -0.36 -0.19 -0.36 -0.17 -0.38 -0.14 -0.37 -0.13 -0.38 -0.12 -0.4 -0.1 -0.42 -0.07 -0.4 -0.05 -0.42 -0.04 -0.43 -0.01 -0.42 0 0zm7.44 -0.01l0 0.01 -7.44 0 0 -0.01 0 0 7.44 0zm0.92 -8.36l0 7.43 0 0 -0.05 0.01 -0.03 0 -0.05 0.01 -0.06 0 -0.03 0.01 -0.04 0.01 -0.05 0.02 -0.04 0.02 -0.04 0.01 -0.04 0.02 -0.03 0.02 -0.04 0.03 -0.04 0.03 -0.04 0.02 -0.04 0.04 -0.03 0.03 -0.03 0.03 -0.03 0.04 -0.03 0.04 -0.03 0.04 -0.03 0.04 -0.02 0.03 -0.01 0.04 -0.02 0.04 -0.02 0.04 -0.02 0.05 -0.01 0.04 -0.01 0.03 0 0.06 -0.01 0.04 0 0.04 0 0.05 -7.44 0 0.01 -0.42 0.04 -0.43 0.05 -0.42 0.07 -0.4 0.1 -0.42 0.12 -0.4 0.13 -0.38 0.14 -0.37 0.17 -0.38 0.19 -0.36 0.2 -0.36 0.22 -0.33 0.23 -0.33 0.25 -0.32 0.26 -0.29 0.28 -0.29 0.29 -0.28 0.3 -0.26 0.31 -0.25 0.33 -0.23 0.33 -0.22 0.36 -0.2 0.36 -0.19 0.38 -0.17 0.37 -0.15 0.38 -0.13 0.4 -0.11 0.42 -0.1 0.4 -0.07 0.42 -0.05 0.43 -0.04 0.42 -0.01 0 0z"/>
     <path id="1" class="fil0" d="M9.6 47.81l8.37 0c2.55,0 4.64,2.09 4.64,4.64l0 0.01c0,2.55 -2.09,4.64 -4.64,4.64l-8.37 0c-2.55,0 -4.64,-2.09 -4.64,-4.64l0 -0.01c0,-2.55 2.09,-4.64 4.64,-4.64z"/>
    </g>
    <g>
     <path class="fil1" d="M17.97 70.11l-8.37 0 0 -7.43 8.37 0 0 0 0 7.43zm8.36 0.93l-7.43 0 0 0 0 -0.06 -0.01 -0.03 0 -0.05 -0.01 -0.05 -0.01 -0.04 -0.01 -0.04 -0.02 -0.05 -0.02 -0.04 -0.01 -0.04 -0.02 -0.03 -0.02 -0.04 -0.03 -0.04 -0.03 -0.04 -0.02 -0.03 -0.04 -0.05 -0.03 -0.03 -0.03 -0.02 -0.04 -0.04 -0.03 -0.03 -0.05 -0.03 -0.03 -0.02 -0.04 -0.02 -0.04 -0.02 -0.03 -0.02 -0.05 -0.02 -0.05 -0.01 -0.04 -0.02 -0.03 0 -0.05 -0.01 -0.05 -0.01 -0.04 0 -0.05 0 0 -7.43 0.42 0.01 0.44 0.03 0.41 0.05 0.4 0.08 0.42 0.09 0.4 0.12 0.38 0.13 0.38 0.15 0.37 0.17 0.37 0.18 0.35 0.21 0.34 0.21 0.32 0.24 0.32 0.24 0.29 0.26 0.3 0.28 0.27 0.29 0.26 0.3 0.25 0.31 0.23 0.33 0.22 0.34 0.2 0.35 0.19 0.36 0.17 0.38 0.15 0.38 0.13 0.38 0.11 0.4 0.1 0.41 0.07 0.41 0.06 0.41 0.03 0.43 0.01 0.43 0 0zm-7.43 0l0 0 7.43 0 0 0 0 0 -7.43 0zm-0.93 8.36l0 -7.43 0 0 0.05 0 0.04 -0.01 0.05 0 0.05 -0.01 0.03 -0.01 0.04 -0.01 0.05 -0.02 0.05 -0.01 0.03 -0.02 0.04 -0.02 0.04 -0.02 0.03 -0.03 0.05 -0.02 0.03 -0.03 0.04 -0.04 0.03 -0.03 0.03 -0.03 0.04 -0.04 0.02 -0.03 0.03 -0.04 0.03 -0.04 0.02 -0.04 0.02 -0.04 0.01 -0.03 0.02 -0.05 0.02 -0.05 0.01 -0.04 0.01 -0.03 0.01 -0.05 0 -0.05 0.01 -0.04 0 -0.05 7.43 0 -0.01 0.42 -0.03 0.44 -0.06 0.41 -0.07 0.4 -0.1 0.42 -0.11 0.4 -0.13 0.38 -0.15 0.38 -0.17 0.37 -0.19 0.37 -0.2 0.35 -0.22 0.34 -0.23 0.32 -0.25 0.32 -0.26 0.29 -0.27 0.3 -0.3 0.28 -0.29 0.25 -0.32 0.25 -0.32 0.23 -0.34 0.22 -0.35 0.2 -0.37 0.19 -0.37 0.17 -0.38 0.15 -0.38 0.13 -0.4 0.11 -0.42 0.1 -0.4 0.07 -0.41 0.06 -0.44 0.03 -0.42 0.01 0 0zm-8.37 -7.43l8.37 0 0 7.43 -8.37 0 0 0 0 -7.43zm-8.36 -0.93l7.44 0 0 0 0 0.05 0 0.04 0.01 0.05 0 0.05 0.01 0.03 0.01 0.04 0.02 0.05 0.02 0.05 0.02 0.03 0.01 0.04 0.02 0.04 0.03 0.04 0.03 0.04 0.03 0.03 0.03 0.04 0.03 0.03 0.03 0.03 0.04 0.04 0.04 0.03 0.04 0.02 0.04 0.03 0.03 0.02 0.04 0.02 0.04 0.02 0.04 0.01 0.05 0.02 0.04 0.01 0.03 0.01 0.06 0.01 0.05 0 0.03 0.01 0.05 0 0 7.43 -0.42 -0.01 -0.43 -0.03 -0.42 -0.06 -0.4 -0.07 -0.42 -0.1 -0.4 -0.11 -0.38 -0.13 -0.37 -0.15 -0.38 -0.17 -0.36 -0.19 -0.36 -0.2 -0.33 -0.22 -0.33 -0.23 -0.31 -0.25 -0.3 -0.25 -0.29 -0.28 -0.28 -0.3 -0.26 -0.29 -0.25 -0.32 -0.23 -0.32 -0.22 -0.34 -0.2 -0.35 -0.19 -0.37 -0.17 -0.37 -0.14 -0.38 -0.13 -0.38 -0.12 -0.4 -0.1 -0.42 -0.07 -0.4 -0.05 -0.41 -0.04 -0.44 -0.01 -0.42 0 0zm7.44 0l0 0 -7.44 0 0 0 0 0 7.44 0zm0.92 -8.36l0 7.43 0 0 -0.05 0 -0.03 0 -0.05 0.01 -0.06 0.01 -0.03 0 -0.04 0.02 -0.05 0.01 -0.04 0.02 -0.04 0.02 -0.04 0.02 -0.03 0.02 -0.04 0.02 -0.04 0.03 -0.04 0.03 -0.04 0.04 -0.03 0.02 -0.03 0.03 -0.03 0.05 -0.03 0.03 -0.03 0.04 -0.03 0.04 -0.02 0.04 -0.01 0.03 -0.02 0.04 -0.02 0.04 -0.02 0.05 -0.01 0.04 -0.01 0.04 0 0.05 -0.01 0.05 0 0.03 0 0.06 -7.44 0 0.01 -0.43 0.04 -0.43 0.05 -0.41 0.07 -0.41 0.1 -0.41 0.12 -0.4 0.13 -0.38 0.14 -0.38 0.17 -0.38 0.19 -0.36 0.2 -0.35 0.22 -0.34 0.23 -0.33 0.25 -0.31 0.26 -0.3 0.28 -0.29 0.29 -0.28 0.3 -0.26 0.31 -0.24 0.33 -0.24 0.33 -0.21 0.36 -0.21 0.36 -0.18 0.38 -0.17 0.37 -0.15 0.38 -0.13 0.4 -0.12 0.42 -0.09 0.4 -0.08 0.42 -0.05 0.43 -0.03 0.42 -0.01 0 0z"/>
     <path id="1" class="fil0" d="M9.6 66.39l8.37 0c2.55,0 4.64,2.09 4.64,4.65l0 0c0,2.55 -2.09,4.64 -4.64,4.64l-8.37 0c-2.55,0 -4.64,-2.09 -4.64,-4.64l0 0c0,-2.56 2.09,-4.65 4.64,-4.65z"/>
    </g>
    <g>
     <path class="fil1" d="M17.97 88.69l-8.37 0 0 -7.43 8.37 0 0 0 0 7.43zm8.36 0.93l-7.43 0 0 0 0 -0.05 -0.01 -0.04 0 -0.05 -0.01 -0.05 -0.01 -0.03 -0.01 -0.04 -0.02 -0.05 -0.02 -0.05 -0.01 -0.04 -0.02 -0.03 -0.02 -0.04 -0.03 -0.04 -0.03 -0.04 -0.02 -0.03 -0.04 -0.04 -0.03 -0.03 -0.03 -0.03 -0.04 -0.04 -0.03 -0.03 -0.05 -0.02 -0.03 -0.03 -0.04 -0.02 -0.04 -0.02 -0.03 -0.02 -0.05 -0.01 -0.05 -0.02 -0.04 -0.01 -0.03 -0.01 -0.05 -0.01 -0.05 -0.01 -0.04 0 -0.05 0 0 -7.43 0.42 0.01 0.44 0.03 0.41 0.06 0.4 0.07 0.42 0.1 0.4 0.11 0.38 0.13 0.38 0.15 0.37 0.17 0.37 0.18 0.35 0.21 0.34 0.22 0.32 0.23 0.32 0.25 0.29 0.25 0.3 0.28 0.27 0.3 0.26 0.29 0.25 0.32 0.23 0.32 0.22 0.34 0.2 0.35 0.19 0.37 0.17 0.37 0.15 0.38 0.13 0.38 0.11 0.4 0.1 0.42 0.07 0.4 0.06 0.41 0.03 0.44 0.01 0.42 0 0zm-7.43 0l0 0 7.43 0 0 0 0 0 -7.43 0zm-0.93 8.36l0 -7.43 0 0 0.05 0 0.04 0 0.05 -0.01 0.05 -0.01 0.03 -0.01 0.04 -0.01 0.05 -0.01 0.05 -0.02 0.03 -0.02 0.04 -0.02 0.04 -0.02 0.03 -0.02 0.05 -0.03 0.03 -0.03 0.04 -0.04 0.03 -0.02 0.03 -0.04 0.04 -0.04 0.02 -0.03 0.03 -0.04 0.03 -0.04 0.02 -0.04 0.02 -0.03 0.01 -0.04 0.02 -0.04 0.02 -0.05 0.01 -0.05 0.01 -0.03 0.01 -0.05 0 -0.05 0.01 -0.04 0 -0.05 7.43 0 -0.01 0.43 -0.03 0.43 -0.06 0.41 -0.07 0.41 -0.1 0.41 -0.11 0.4 -0.13 0.38 -0.15 0.38 -0.17 0.38 -0.19 0.36 -0.2 0.35 -0.22 0.34 -0.23 0.32 -0.25 0.32 -0.26 0.3 -0.27 0.29 -0.3 0.28 -0.29 0.25 -0.32 0.25 -0.32 0.24 -0.34 0.21 -0.35 0.21 -0.37 0.18 -0.37 0.17 -0.38 0.15 -0.38 0.13 -0.4 0.12 -0.42 0.09 -0.4 0.07 -0.41 0.06 -0.44 0.03 -0.42 0.01 0 0zm-8.37 -7.43l8.37 0 0 7.43 -8.37 0 0 0 0 -7.43zm-8.36 -0.93l7.44 0 0 0 0 0.05 0 0.04 0.01 0.05 0 0.05 0.01 0.03 0.01 0.05 0.02 0.05 0.02 0.04 0.02 0.04 0.01 0.03 0.02 0.04 0.03 0.04 0.03 0.04 0.03 0.03 0.03 0.04 0.03 0.04 0.03 0.02 0.04 0.04 0.04 0.03 0.04 0.03 0.04 0.02 0.03 0.02 0.04 0.02 0.04 0.02 0.04 0.02 0.05 0.01 0.04 0.01 0.03 0.01 0.06 0.01 0.05 0.01 0.03 0 0.05 0 0 7.43 -0.42 -0.01 -0.43 -0.03 -0.42 -0.06 -0.4 -0.07 -0.42 -0.09 -0.4 -0.12 -0.38 -0.13 -0.37 -0.15 -0.38 -0.17 -0.36 -0.18 -0.36 -0.21 -0.33 -0.21 -0.33 -0.24 -0.31 -0.25 -0.3 -0.25 -0.29 -0.28 -0.28 -0.29 -0.26 -0.3 -0.25 -0.32 -0.23 -0.32 -0.22 -0.34 -0.2 -0.35 -0.19 -0.36 -0.17 -0.38 -0.14 -0.38 -0.13 -0.38 -0.12 -0.4 -0.1 -0.41 -0.07 -0.41 -0.05 -0.41 -0.04 -0.43 -0.01 -0.43 0 0zm7.44 0l0 0 -7.44 0 0 0 0 0 7.44 0zm0.92 -8.36l0 7.43 0 0 -0.05 0 -0.03 0 -0.05 0.01 -0.06 0.01 -0.03 0.01 -0.04 0.01 -0.05 0.02 -0.04 0.01 -0.04 0.02 -0.04 0.02 -0.03 0.02 -0.04 0.03 -0.04 0.02 -0.04 0.03 -0.04 0.04 -0.03 0.03 -0.03 0.03 -0.03 0.04 -0.03 0.03 -0.03 0.04 -0.03 0.04 -0.02 0.04 -0.01 0.03 -0.02 0.04 -0.02 0.05 -0.02 0.05 -0.01 0.04 -0.01 0.03 0 0.05 -0.01 0.05 0 0.04 0 0.05 -7.44 0 0.01 -0.42 0.04 -0.44 0.05 -0.41 0.07 -0.4 0.1 -0.42 0.12 -0.4 0.13 -0.38 0.14 -0.38 0.17 -0.37 0.19 -0.37 0.2 -0.35 0.22 -0.34 0.23 -0.32 0.25 -0.32 0.26 -0.29 0.28 -0.3 0.29 -0.28 0.3 -0.25 0.31 -0.25 0.33 -0.23 0.33 -0.22 0.36 -0.21 0.36 -0.18 0.38 -0.17 0.37 -0.15 0.38 -0.13 0.4 -0.11 0.42 -0.1 0.4 -0.07 0.42 -0.06 0.43 -0.03 0.42 -0.01 0 0z"/>
     <path id="1" class="fil0" d="M9.6 84.97l8.37 0c2.55,0 4.64,2.09 4.64,4.65l0 0c0,2.56 -2.09,4.65 -4.64,4.65l-8.37 0c-2.55,0 -4.64,-2.09 -4.64,-4.65l0 0c0,-2.56 2.09,-4.65 4.64,-4.65z"/>
    </g>
    <g>
     <path class="fil1" d="M17.97 107.27l-8.37 0 0 -7.43 8.37 0 0 0 0 7.43zm8.36 0.93l-7.43 0 0 0 0 -0.05 -0.01 -0.04 0 -0.05 -0.01 -0.05 -0.01 -0.03 -0.01 -0.04 -0.02 -0.06 -0.01 -0.03 -0.02 -0.04 -0.02 -0.04 -0.02 -0.04 -0.03 -0.04 -0.03 -0.04 -0.02 -0.03 -0.03 -0.04 -0.04 -0.04 -0.03 -0.02 -0.03 -0.03 -0.04 -0.03 -0.05 -0.03 -0.03 -0.03 -0.04 -0.02 -0.04 -0.02 -0.03 -0.01 -0.05 -0.02 -0.05 -0.02 -0.04 -0.01 -0.03 -0.01 -0.05 -0.01 -0.05 0 -0.04 -0.01 -0.05 0 0 -7.43 0.42 0.01 0.44 0.04 0.41 0.05 0.4 0.07 0.42 0.1 0.4 0.11 0.38 0.13 0.38 0.15 0.37 0.17 0.37 0.19 0.35 0.2 0.34 0.22 0.32 0.23 0.31 0.24 0.3 0.26 0.3 0.29 0.27 0.28 0.26 0.3 0.25 0.32 0.23 0.32 0.22 0.34 0.2 0.36 0.19 0.35 0.17 0.38 0.15 0.38 0.13 0.38 0.11 0.4 0.1 0.42 0.07 0.4 0.06 0.41 0.03 0.44 0.01 0.42 0 0zm-7.43 0l0 0 7.43 0 0 0 0 0 -7.43 0zm-0.93 8.36l0 -7.43 0 0 0.05 0 0.04 0 0.05 -0.01 0.05 -0.01 0.03 0 0.04 -0.02 0.05 -0.01 0.05 -0.02 0.03 -0.02 0.04 -0.02 0.04 -0.02 0.03 -0.02 0.05 -0.03 0.03 -0.03 0.04 -0.03 0.03 -0.03 0.03 -0.03 0.04 -0.05 0.02 -0.03 0.03 -0.04 0.03 -0.04 0.02 -0.04 0.02 -0.03 0.01 -0.04 0.02 -0.04 0.02 -0.05 0.01 -0.04 0.01 -0.04 0.01 -0.05 0 -0.05 0.01 -0.03 0 -0.06 7.43 0 -0.01 0.43 -0.03 0.43 -0.06 0.41 -0.07 0.41 -0.1 0.41 -0.11 0.4 -0.13 0.39 -0.15 0.37 -0.17 0.38 -0.19 0.36 -0.2 0.35 -0.22 0.34 -0.23 0.33 -0.25 0.31 -0.26 0.3 -0.27 0.29 -0.3 0.28 -0.29 0.26 -0.32 0.24 -0.32 0.24 -0.34 0.21 -0.35 0.21 -0.37 0.18 -0.37 0.17 -0.38 0.15 -0.38 0.13 -0.4 0.12 -0.42 0.09 -0.4 0.08 -0.41 0.05 -0.44 0.03 -0.42 0.01 0 0zm-8.37 -7.43l8.37 0 0 7.43 -8.37 0 0 0 0 -7.43zm-8.36 -0.93l7.44 0 0 0 0 0.06 0 0.03 0.01 0.05 0 0.05 0.01 0.04 0.01 0.04 0.02 0.05 0.02 0.04 0.02 0.04 0.01 0.03 0.02 0.04 0.03 0.04 0.03 0.04 0.03 0.03 0.03 0.05 0.03 0.03 0.03 0.03 0.04 0.03 0.04 0.03 0.04 0.03 0.04 0.02 0.03 0.02 0.04 0.02 0.04 0.02 0.04 0.02 0.05 0.01 0.04 0.02 0.03 0 0.06 0.01 0.05 0.01 0.03 0 0.05 0 0 7.43 -0.42 -0.01 -0.43 -0.03 -0.42 -0.05 -0.4 -0.08 -0.42 -0.09 -0.4 -0.12 -0.38 -0.13 -0.37 -0.15 -0.38 -0.17 -0.36 -0.18 -0.36 -0.21 -0.33 -0.21 -0.33 -0.24 -0.31 -0.24 -0.3 -0.26 -0.29 -0.28 -0.28 -0.29 -0.26 -0.3 -0.25 -0.31 -0.23 -0.33 -0.22 -0.34 -0.2 -0.35 -0.19 -0.36 -0.17 -0.38 -0.14 -0.37 -0.13 -0.39 -0.12 -0.4 -0.1 -0.41 -0.07 -0.41 -0.05 -0.41 -0.04 -0.43 -0.01 -0.43 0 0zm7.44 0l0 0 -7.44 0 0 0 0 0 7.44 0zm0.92 -8.36l0 7.43 0 0 -0.05 0 -0.03 0.01 -0.05 0 -0.06 0.01 -0.03 0.01 -0.04 0.01 -0.05 0.02 -0.04 0.02 -0.04 0.01 -0.04 0.02 -0.03 0.02 -0.04 0.03 -0.04 0.03 -0.04 0.03 -0.04 0.03 -0.02 0.02 -0.04 0.04 -0.03 0.04 -0.03 0.03 -0.03 0.04 -0.02 0.04 -0.03 0.04 -0.02 0.04 -0.01 0.04 -0.02 0.03 -0.02 0.06 -0.01 0.04 -0.01 0.03 0 0.05 -0.01 0.05 0 0.04 0 0.05 -7.44 0 0.01 -0.42 0.04 -0.44 0.05 -0.41 0.07 -0.4 0.1 -0.42 0.12 -0.4 0.12 -0.38 0.15 -0.38 0.18 -0.38 0.18 -0.35 0.2 -0.36 0.22 -0.34 0.23 -0.32 0.25 -0.32 0.26 -0.3 0.27 -0.28 0.3 -0.29 0.3 -0.26 0.31 -0.24 0.33 -0.23 0.33 -0.22 0.36 -0.2 0.36 -0.19 0.38 -0.17 0.37 -0.15 0.38 -0.13 0.4 -0.11 0.42 -0.1 0.4 -0.07 0.42 -0.05 0.43 -0.04 0.42 -0.01 0 0z"/>
     <path id="1" class="fil0" d="M9.6 103.56l8.37 0c2.55,0 4.64,2.09 4.64,4.64l0 0c0,2.56 -2.09,4.65 -4.64,4.65l-8.37 0c-2.55,0 -4.64,-2.09 -4.64,-4.65l0 0c0,-2.55 2.09,-4.64 4.64,-4.64z"/>
    </g>
    <g>
     <path class="fil1" d="M17.97 125.86l-8.37 0 0 -7.44 8.37 0 0 0 0 7.44zm8.36 0.92l-7.43 0 0 0 0 -0.05 -0.01 -0.03 0 -0.05 -0.01 -0.06 -0.01 -0.03 -0.01 -0.04 -0.02 -0.05 -0.02 -0.04 -0.01 -0.04 -0.02 -0.04 -0.02 -0.03 -0.03 -0.04 -0.03 -0.04 -0.02 -0.04 -0.04 -0.04 -0.03 -0.03 -0.03 -0.03 -0.04 -0.03 -0.03 -0.03 -0.05 -0.03 -0.03 -0.03 -0.04 -0.02 -0.04 -0.01 -0.03 -0.02 -0.05 -0.02 -0.05 -0.02 -0.04 -0.01 -0.03 -0.01 -0.05 0 -0.05 -0.01 -0.04 0 -0.05 0 0 -7.44 0.42 0.01 0.44 0.04 0.41 0.05 0.4 0.07 0.42 0.1 0.4 0.12 0.38 0.13 0.38 0.14 0.37 0.17 0.37 0.19 0.35 0.2 0.34 0.22 0.32 0.23 0.32 0.25 0.29 0.26 0.3 0.28 0.27 0.29 0.26 0.3 0.25 0.31 0.23 0.33 0.22 0.33 0.2 0.36 0.19 0.36 0.17 0.38 0.15 0.37 0.13 0.38 0.11 0.4 0.1 0.42 0.07 0.4 0.06 0.42 0.03 0.43 0.01 0.42 0 0zm-7.43 0.01l0 -0.01 7.43 0 0 0.01 0 0 -7.43 0zm-0.93 8.36l0 -7.43 0 0 0.05 -0.01 0.04 0 0.05 0 0.05 -0.01 0.03 -0.01 0.04 -0.01 0.05 -0.02 0.05 -0.02 0.03 -0.01 0.04 -0.02 0.04 -0.02 0.03 -0.03 0.05 -0.03 0.03 -0.02 0.04 -0.04 0.03 -0.03 0.03 -0.03 0.04 -0.04 0.02 -0.04 0.03 -0.04 0.03 -0.04 0.02 -0.03 0.02 -0.04 0.01 -0.03 0.02 -0.05 0.02 -0.05 0.01 -0.04 0.01 -0.03 0.01 -0.06 0 -0.04 0.01 -0.04 0 -0.05 7.43 0 -0.01 0.42 -0.03 0.43 -0.06 0.42 -0.07 0.4 -0.1 0.42 -0.11 0.4 -0.13 0.38 -0.15 0.37 -0.17 0.38 -0.19 0.36 -0.2 0.36 -0.22 0.33 -0.23 0.33 -0.25 0.32 -0.26 0.29 -0.27 0.29 -0.3 0.28 -0.29 0.26 -0.32 0.25 -0.32 0.23 -0.34 0.22 -0.35 0.2 -0.37 0.19 -0.37 0.17 -0.38 0.15 -0.38 0.13 -0.4 0.11 -0.42 0.1 -0.4 0.07 -0.41 0.05 -0.44 0.04 -0.42 0.01 0 0zm-8.37 -7.43l8.37 0 0 7.43 -8.37 0 0 0 0 -7.43zm-8.36 -0.93l7.44 0 0 0 0 0.05 0 0.04 0.01 0.04 0 0.06 0.01 0.03 0.01 0.04 0.02 0.05 0.02 0.05 0.02 0.03 0.01 0.04 0.02 0.03 0.03 0.04 0.03 0.04 0.03 0.04 0.03 0.04 0.03 0.03 0.03 0.03 0.04 0.04 0.04 0.02 0.04 0.03 0.04 0.03 0.03 0.02 0.04 0.02 0.04 0.01 0.04 0.02 0.05 0.02 0.04 0.01 0.03 0.01 0.06 0.01 0.05 0 0.03 0 0.05 0.01 0 7.43 -0.42 -0.01 -0.43 -0.04 -0.42 -0.05 -0.4 -0.07 -0.42 -0.1 -0.4 -0.11 -0.38 -0.13 -0.37 -0.15 -0.38 -0.17 -0.36 -0.19 -0.36 -0.2 -0.33 -0.22 -0.33 -0.23 -0.31 -0.25 -0.3 -0.26 -0.29 -0.28 -0.28 -0.29 -0.26 -0.29 -0.25 -0.32 -0.23 -0.33 -0.22 -0.33 -0.2 -0.36 -0.19 -0.36 -0.17 -0.38 -0.14 -0.37 -0.13 -0.38 -0.12 -0.4 -0.1 -0.42 -0.07 -0.4 -0.05 -0.42 -0.04 -0.43 -0.01 -0.42 0 0zm7.44 -0.01l0 0.01 -7.44 0 0 -0.01 0 0 7.44 0zm0.92 -8.36l0 7.44 0 0 -0.05 0 -0.03 0 -0.05 0.01 -0.06 0 -0.03 0.01 -0.04 0.01 -0.05 0.02 -0.04 0.02 -0.04 0.02 -0.04 0.01 -0.03 0.02 -0.04 0.03 -0.04 0.03 -0.04 0.03 -0.04 0.03 -0.03 0.03 -0.03 0.03 -0.03 0.04 -0.03 0.04 -0.03 0.04 -0.03 0.04 -0.02 0.03 -0.01 0.04 -0.02 0.04 -0.02 0.04 -0.02 0.05 -0.01 0.04 -0.01 0.03 0 0.06 -0.01 0.05 0 0.03 0 0.05 -7.44 0 0.01 -0.42 0.04 -0.43 0.05 -0.42 0.07 -0.4 0.1 -0.42 0.12 -0.4 0.13 -0.38 0.14 -0.37 0.17 -0.38 0.19 -0.36 0.2 -0.36 0.22 -0.33 0.23 -0.33 0.25 -0.31 0.26 -0.3 0.28 -0.29 0.29 -0.28 0.3 -0.26 0.31 -0.25 0.33 -0.23 0.33 -0.22 0.36 -0.2 0.36 -0.19 0.38 -0.17 0.37 -0.14 0.38 -0.13 0.4 -0.12 0.42 -0.1 0.4 -0.07 0.42 -0.05 0.43 -0.04 0.42 -0.01 0 0z"/>
     <path id="1" class="fil0" d="M9.6 122.14l8.37 0c2.55,0 4.64,2.09 4.64,4.64l0 0.01c0,2.55 -2.09,4.64 -4.64,4.64l-8.37 0c-2.55,0 -4.64,-2.09 -4.64,-4.64l0 -0.01c0,-2.55 2.09,-4.64 4.64,-4.64z"/>
    </g>
    <g>
     <path class="fil1" d="M17.97 144.44l-8.37 0 0 -7.43 8.37 0 0 0 0 7.43zm8.36 0.93l-7.43 0 0 0 0 -0.06 -0.01 -0.03 0 -0.05 -0.01 -0.05 -0.01 -0.04 -0.01 -0.04 -0.02 -0.05 -0.02 -0.04 -0.01 -0.04 -0.02 -0.03 -0.02 -0.04 -0.03 -0.04 -0.03 -0.04 -0.02 -0.03 -0.04 -0.05 -0.03 -0.03 -0.03 -0.03 -0.04 -0.03 -0.03 -0.03 -0.05 -0.03 -0.03 -0.02 -0.04 -0.02 -0.04 -0.02 -0.03 -0.02 -0.05 -0.02 -0.05 -0.01 -0.04 -0.02 -0.03 0 -0.05 -0.01 -0.05 -0.01 -0.04 0 -0.05 0 0 -7.43 0.42 0.01 0.44 0.03 0.41 0.05 0.4 0.08 0.42 0.09 0.4 0.12 0.38 0.13 0.38 0.15 0.37 0.17 0.37 0.18 0.35 0.21 0.34 0.21 0.32 0.24 0.32 0.24 0.29 0.26 0.3 0.28 0.27 0.29 0.26 0.3 0.25 0.31 0.23 0.33 0.22 0.34 0.2 0.35 0.19 0.36 0.17 0.38 0.15 0.37 0.13 0.39 0.11 0.4 0.1 0.41 0.07 0.41 0.06 0.41 0.03 0.43 0.01 0.43 0 0zm-7.43 0l0 0 7.43 0 0 0 0 0 -7.43 0zm-0.93 8.36l0 -7.43 0 0 0.05 0 0.04 -0.01 0.05 0 0.05 -0.01 0.03 -0.01 0.04 -0.01 0.05 -0.02 0.05 -0.02 0.03 -0.01 0.04 -0.02 0.04 -0.02 0.03 -0.03 0.05 -0.03 0.03 -0.02 0.04 -0.04 0.03 -0.03 0.03 -0.03 0.04 -0.04 0.02 -0.03 0.03 -0.04 0.03 -0.04 0.02 -0.04 0.02 -0.04 0.01 -0.03 0.02 -0.05 0.02 -0.05 0.01 -0.04 0.01 -0.03 0.01 -0.05 0 -0.05 0.01 -0.04 0 -0.05 7.43 0 -0.01 0.42 -0.03 0.44 -0.06 0.41 -0.07 0.4 -0.1 0.42 -0.11 0.4 -0.13 0.38 -0.15 0.38 -0.17 0.37 -0.19 0.37 -0.2 0.35 -0.22 0.34 -0.23 0.32 -0.25 0.32 -0.26 0.29 -0.27 0.3 -0.3 0.28 -0.29 0.25 -0.32 0.25 -0.32 0.23 -0.34 0.22 -0.35 0.2 -0.37 0.19 -0.37 0.17 -0.38 0.15 -0.38 0.13 -0.4 0.11 -0.42 0.1 -0.4 0.07 -0.41 0.06 -0.44 0.03 -0.42 0.01 0 0zm-8.37 -7.43l8.37 0 0 7.43 -8.37 0 0 0 0 -7.43zm-8.36 -0.93l7.44 0 0 0 0 0.05 0 0.04 0.01 0.05 0 0.05 0.01 0.03 0.01 0.04 0.02 0.05 0.02 0.05 0.02 0.03 0.01 0.04 0.02 0.04 0.03 0.04 0.03 0.04 0.03 0.03 0.03 0.04 0.03 0.03 0.03 0.03 0.04 0.04 0.04 0.02 0.04 0.03 0.04 0.03 0.03 0.02 0.04 0.02 0.04 0.01 0.04 0.02 0.05 0.02 0.04 0.01 0.03 0.01 0.06 0.01 0.05 0 0.03 0.01 0.05 0 0 7.43 -0.42 -0.01 -0.43 -0.03 -0.42 -0.06 -0.4 -0.07 -0.42 -0.1 -0.4 -0.11 -0.38 -0.13 -0.37 -0.15 -0.38 -0.17 -0.36 -0.19 -0.36 -0.2 -0.33 -0.22 -0.33 -0.23 -0.31 -0.25 -0.3 -0.25 -0.29 -0.28 -0.28 -0.3 -0.26 -0.29 -0.25 -0.32 -0.23 -0.32 -0.22 -0.34 -0.2 -0.35 -0.19 -0.37 -0.17 -0.37 -0.14 -0.38 -0.13 -0.38 -0.12 -0.4 -0.1 -0.42 -0.07 -0.4 -0.05 -0.41 -0.04 -0.44 -0.01 -0.42 0 0zm7.44 0l0 0 -7.44 0 0 0 0 0 7.44 0zm0.92 -8.36l0 7.43 0 0 -0.05 0 -0.03 0 -0.05 0.01 -0.06 0.01 -0.03 0 -0.04 0.02 -0.05 0.01 -0.04 0.02 -0.04 0.02 -0.04 0.02 -0.03 0.02 -0.04 0.02 -0.04 0.03 -0.04 0.03 -0.04 0.03 -0.03 0.03 -0.03 0.03 -0.03 0.05 -0.03 0.03 -0.03 0.04 -0.03 0.04 -0.02 0.04 -0.01 0.03 -0.02 0.04 -0.02 0.04 -0.02 0.05 -0.01 0.04 -0.01 0.04 0 0.05 -0.01 0.05 0 0.03 0 0.06 -7.44 0 0.01 -0.43 0.04 -0.43 0.05 -0.41 0.07 -0.41 0.1 -0.41 0.12 -0.4 0.13 -0.39 0.14 -0.37 0.17 -0.38 0.19 -0.36 0.2 -0.35 0.22 -0.34 0.23 -0.33 0.25 -0.31 0.26 -0.3 0.28 -0.29 0.29 -0.28 0.3 -0.26 0.31 -0.24 0.33 -0.24 0.33 -0.21 0.36 -0.21 0.36 -0.18 0.38 -0.17 0.37 -0.15 0.38 -0.13 0.4 -0.12 0.42 -0.09 0.4 -0.08 0.42 -0.05 0.43 -0.03 0.42 -0.01 0 0z"/>
     <path id="1" class="fil0" d="M9.6 140.72l8.37 0c2.55,0 4.64,2.09 4.64,4.65l0 0c0,2.55 -2.09,4.64 -4.64,4.64l-8.37 0c-2.55,0 -4.64,-2.09 -4.64,-4.64l0 0c0,-2.56 2.09,-4.65 4.64,-4.65z"/>
    </g>
   </g>
  </g>
 </g>
</svg>
